{"asset":{"version":"2.0","generator":"babylon.js glTF exporter for Maya 2018 v20200527.2"},"scene":0,"scenes":[{"nodes":[0]}],"nodes":[{"children":[1,2,3,4,5],"scale":[0.0001,0.0001,0.0001],"name":"ZhiShaJi"},{"mesh":0,"name":"M_Metal_Iron_Gray2","extras":{"MaxHandle":213}},{"mesh":1,"name":"M_Metal_Iron_Crimson1","extras":{"MaxHandle":214}},{"mesh":2,"name":"M_Metal_Iron_Black1","extras":{"MaxHandle":216}},{"mesh":3,"name":"ShenYangShunDa1"},{"mesh":4,"name":"M_Metal_Steel_Silver1","extras":{"MaxHandle":222}}],"meshes":[{"primitives":[{"attributes":{"POSITION":1,"TANGENT":2,"NORMAL":3,"TEXCOORD_0":4,"TEXCOORD_1":5},"indices":0,"material":0}],"name":"M_Metal_Iron_Gray2"},{"primitives":[{"attributes":{"POSITION":7,"TANGENT":8,"NORMAL":9,"TEXCOORD_0":10,"TEXCOORD_1":11},"indices":6,"material":1}],"name":"M_Metal_Iron_Crimson1"},{"primitives":[{"attributes":{"POSITION":13,"TANGENT":14,"NORMAL":15,"TEXCOORD_0":16,"TEXCOORD_1":17},"indices":12,"material":2}],"name":"M_Metal_Iron_Black1"},{"primitives":[{"attributes":{"POSITION":19,"TANGENT":20,"NORMAL":21,"TEXCOORD_0":22},"indices":18,"material":3},{"attributes":{"POSITION":24,"TANGENT":25,"NORMAL":26,"TEXCOORD_0":27},"indices":23,"material":4}],"name":"ShenYangShunDa1"},{"primitives":[{"attributes":{"POSITION":29,"TANGENT":30,"NORMAL":31,"TEXCOORD_0":32,"TEXCOORD_1":33},"indices":28,"material":5}],"name":"M_Metal_Steel_Silver1"}],"accessors":[{"bufferView":0,"componentType":5123,"count":42696,"type":"SCALAR","name":"accessorIndices"},{"bufferView":1,"componentType":5126,"count":25368,"max":[0.848739743,0.74375397,0.5178766],"min":[-0.917081356,-0.166210115,-0.5640654],"type":"VEC3","name":"accessorPositions"},{"bufferView":2,"componentType":5126,"count":25368,"type":"VEC4","name":"accessorTangents"},{"bufferView":1,"byteOffset":304416,"componentType":5126,"count":25368,"type":"VEC3","name":"accessorNormals"},{"bufferView":3,"componentType":5126,"count":25368,"type":"VEC2","name":"accessorUVs"},{"bufferView":3,"byteOffset":202944,"componentType":5126,"count":25368,"type":"VEC2","name":"accessorUV2s"},{"bufferView":0,"byteOffset":85392,"componentType":5123,"count":2976,"type":"SCALAR","name":"accessorIndices"},{"bufferView":1,"byteOffset":608832,"componentType":5126,"count":1082,"max":[0.305511415,0.7463298,0.347014219],"min":[0.121836193,-0.168168485,-0.567486048],"type":"VEC3","name":"accessorPositions"},{"bufferView":2,"byteOffset":405888,"componentType":5126,"count":1082,"type":"VEC4","name":"accessorTangents"},{"bufferView":1,"byteOffset":621816,"componentType":5126,"count":1082,"type":"VEC3","name":"accessorNormals"},{"bufferView":3,"byteOffset":405888,"componentType":5126,"count":1082,"type":"VEC2","name":"accessorUVs"},{"bufferView":3,"byteOffset":414544,"componentType":5126,"count":1082,"type":"VEC2","name":"accessorUV2s"},{"bufferView":0,"byteOffset":91344,"componentType":5123,"count":39834,"type":"SCALAR","name":"accessorIndices"},{"bufferView":1,"byteOffset":634800,"componentType":5126,"count":23297,"max":[0.864727736,0.7416879,0.566544652],"min":[-1.06549263,-0.164144114,-0.5619993],"type":"VEC3","name":"accessorPositions"},{"bufferView":2,"byteOffset":423200,"componentType":5126,"count":23297,"type":"VEC4","name":"accessorTangents"},{"bufferView":1,"byteOffset":914364,"componentType":5126,"count":23297,"type":"VEC3","name":"accessorNormals"},{"bufferView":3,"byteOffset":423200,"componentType":5126,"count":23297,"type":"VEC2","name":"accessorUVs"},{"bufferView":3,"byteOffset":609576,"componentType":5126,"count":23297,"type":"VEC2","name":"accessorUV2s"},{"bufferView":0,"byteOffset":171012,"componentType":5123,"count":24,"type":"SCALAR","name":"accessorIndices"},{"bufferView":1,"byteOffset":1193928,"componentType":5126,"count":12,"max":[0.159021989,0.3596014,0.209542647],"min":[-0.60281837,0.288775146,-0.427534848],"type":"VEC3","name":"accessorPositions"},{"bufferView":2,"byteOffset":795952,"componentType":5126,"count":12,"type":"VEC4","name":"accessorTangents"},{"bufferView":1,"byteOffset":1194072,"componentType":5126,"count":12,"type":"VEC3","name":"accessorNormals"},{"bufferView":3,"byteOffset":795952,"componentType":5126,"count":12,"type":"VEC2","name":"accessorUVs"},{"bufferView":0,"byteOffset":171060,"componentType":5123,"count":57936,"type":"SCALAR","name":"accessorIndices"},{"bufferView":1,"byteOffset":1194216,"componentType":5126,"count":18697,"max":[1.10072565,0.8621547,0.682466865],"min":[-1.10072565,-0.3145021,-0.682466865],"type":"VEC3","name":"accessorPositions"},{"bufferView":2,"byteOffset":796144,"componentType":5126,"count":18697,"type":"VEC4","name":"accessorTangents"},{"bufferView":1,"byteOffset":1418580,"componentType":5126,"count":18697,"type":"VEC3","name":"accessorNormals"},{"bufferView":3,"byteOffset":796048,"componentType":5126,"count":18697,"type":"VEC2","name":"accessorUVs"},{"bufferView":0,"byteOffset":286932,"componentType":5123,"count":17544,"type":"SCALAR","name":"accessorIndices"},{"bufferView":1,"byteOffset":1642944,"componentType":5126,"count":10580,"max":[1.0502671,0.609131753,0.468582839],"min":[-0.6212985,-0.0314734019,-0.437025279],"type":"VEC3","name":"accessorPositions"},{"bufferView":2,"byteOffset":1095296,"componentType":5126,"count":10580,"type":"VEC4","name":"accessorTangents"},{"bufferView":1,"byteOffset":1769904,"componentType":5126,"count":10580,"type":"VEC3","name":"accessorNormals"},{"bufferView":3,"byteOffset":945624,"componentType":5126,"count":10580,"type":"VEC2","name":"accessorUVs"},{"bufferView":3,"byteOffset":1030264,"componentType":5126,"count":10580,"type":"VEC2","name":"accessorUV2s"},{"bufferView":4,"componentType":5126,"count":2,"max":[2.66666675],"min":[0.0],"type":"SCALAR","name":"accessorAnimationInput"},{"bufferView":5,"componentType":5126,"count":2,"type":"VEC3","name":"accessorAnimationScales"},{"bufferView":4,"byteOffset":8,"componentType":5126,"count":59,"max":[2.0],"min":[0.0],"type":"SCALAR","name":"accessorAnimationInput"},{"bufferView":5,"byteOffset":24,"componentType":5126,"count":59,"type":"VEC3","name":"accessorAnimationScales"},{"bufferView":4,"byteOffset":244,"componentType":5126,"count":60,"max":[2.0],"min":[0.0],"type":"SCALAR","name":"accessorAnimationInput"},{"bufferView":5,"byteOffset":732,"componentType":5126,"count":60,"type":"VEC3","name":"accessorAnimationScales"}],"bufferViews":[{"buffer":0,"byteLength":322020,"name":"bufferViewScalar"},{"buffer":0,"byteOffset":322020,"byteLength":1896864,"byteStride":12,"name":"bufferViewFloatVec3"},{"buffer":0,"byteOffset":2218884,"byteLength":1264576,"byteStride":16,"name":"bufferViewFloatVec4"},{"buffer":0,"byteOffset":3483460,"byteLength":1114904,"byteStride":8,"name":"bufferViewFloatVec2"},{"buffer":0,"byteOffset":4598364,"byteLength":484,"name":"bufferViewAnimationFloatScalar"},{"buffer":0,"byteOffset":4598848,"byteLength":1452,"name":"bufferViewAnimationFloatVec3"}],"buffers":[{"uri":"ZhiShaJi.bin","byteLength":4600300}],"materials":[{"pbrMetallicRoughness":{"baseColorFactor":[0.1069,0.1069,0.1069,1.0],"metallicFactor":0.0,"roughnessFactor":0.450053632},"name":"M_Metal_Iron_Gray","extras":{"babylonUnlit":0,"babylonMaxSimultaneousLights":4,"babylonTransparencyMode":-1}},{"pbrMetallicRoughness":{"baseColorFactor":[0.5,0.5,0.5,1.0],"metallicFactor":0.0,"roughnessFactor":0.450053632},"emissiveFactor":[0.588,0.588,0.588],"name":"M_Paint_Less","extras":{"babylonUnlit":0,"babylonMaxSimultaneousLights":4,"babylonTransparencyMode":-1}},{"pbrMetallicRoughness":{"baseColorFactor":[0.08791209,0.08791209,0.08791209,1.0],"metallicFactor":0.0,"roughnessFactor":0.450053632},"name":"M_Metal_Iron_Black","extras":{"babylonUnlit":0,"babylonMaxSimultaneousLights":4,"babylonTransparencyMode":-1}},{"pbrMetallicRoughness":{"baseColorFactor":[0.5,0.5,0.5,1.0],"metallicFactor":0.0,"roughnessFactor":0.450053632},"name":"M_Logo_Texture","extras":{"babylonUnlit":0,"babylonMaxSimultaneousLights":4,"babylonTransparencyMode":-1}},{"pbrMetallicRoughness":{"baseColorFactor":[0.3681,0.1911,0.0,1.0],"metallicFactor":0.0,"roughnessFactor":0.450053632},"name":"M_Paint_Main","extras":{"babylonUnlit":0,"babylonMaxSimultaneousLights":4,"babylonTransparencyMode":-1}},{"pbrMetallicRoughness":{"baseColorFactor":[0.2375,0.2375,0.2375,1.0],"metallicFactor":0.0,"roughnessFactor":0.450053632},"name":"M_Metal_Steel_Silver","extras":{"babylonUnlit":0,"babylonMaxSimultaneousLights":4,"babylonTransparencyMode":-1}}],"animations":[{"channels":[{"sampler":0,"target":{"node":0,"path":"scale"}}],"samplers":[{"input":34,"output":35}],"name":"ZhiShaJi_BaoZha"},{"channels":[{"sampler":0,"target":{"node":0,"path":"scale"}}],"samplers":[{"input":36,"output":37}],"name":"ZhiShaJi_inout"},{"channels":[{"sampler":0,"target":{"node":0,"path":"scale"}}],"samplers":[{"input":38,"output":39}],"name":"ZhiShaJi_BaoZha_Inout"}]}