{"asset":{"version":"2.0","generator":"babylon.js glTF exporter for Maya 2018 v20200917.1"},"scene":0,"scenes":[{"nodes":[0]}],"nodes":[{"children":[1,2,3,4,5],"scale":[0.0001,0.0001,0.0001],"name":"ZhiShaJi"},{"mesh":0,"name":"M_Metal_Iron_Gray2","extras":{"MaxHandle":213}},{"mesh":1,"name":"M_Metal_Iron_Crimson1","extras":{"MaxHandle":214}},{"mesh":2,"name":"M_Metal_Iron_Black1","extras":{"MaxHandle":216}},{"mesh":3,"name":"ShenYangShunDa1"},{"mesh":4,"name":"M_Metal_Steel_Silver1","extras":{"MaxHandle":222}}],"meshes":[{"primitives":[{"attributes":{"POSITION":1,"TANGENT":2,"NORMAL":3,"TEXCOORD_0":4,"TEXCOORD_1":5},"indices":0,"material":0}],"name":"M_Metal_Iron_Gray2"},{"primitives":[{"attributes":{"POSITION":7,"TANGENT":8,"NORMAL":9,"TEXCOORD_0":10,"TEXCOORD_1":11},"indices":6,"material":1}],"name":"M_Metal_Iron_Crimson1"},{"primitives":[{"attributes":{"POSITION":13,"TANGENT":14,"NORMAL":15,"TEXCOORD_0":16,"TEXCOORD_1":17},"indices":12,"material":2}],"name":"M_Metal_Iron_Black1"},{"primitives":[{"attributes":{"POSITION":19,"TANGENT":20,"NORMAL":21,"TEXCOORD_0":22},"indices":18,"material":3},{"attributes":{"POSITION":24,"TANGENT":25,"NORMAL":26,"TEXCOORD_0":27},"indices":23,"material":4}],"name":"ShenYangShunDa1"},{"primitives":[{"attributes":{"POSITION":29,"TANGENT":30,"NORMAL":31,"TEXCOORD_0":32,"TEXCOORD_1":33},"indices":28,"material":5}],"name":"M_Metal_Steel_Silver1"}],"accessors":[{"bufferView":0,"componentType":5123,"count":42696,"type":"SCALAR","name":"accessorIndices"},{"bufferView":1,"componentType":5126,"count":42696,"max":[0.848739743,0.74375397,0.5178766],"min":[-0.917081356,-0.166210115,-0.5640654],"type":"VEC3","name":"accessorPositions"},{"bufferView":2,"componentType":5126,"count":42696,"type":"VEC4","name":"accessorTangents"},{"bufferView":1,"byteOffset":512352,"componentType":5126,"count":42696,"type":"VEC3","name":"accessorNormals"},{"bufferView":3,"componentType":5126,"count":42696,"type":"VEC2","name":"accessorUVs"},{"bufferView":3,"byteOffset":341568,"componentType":5126,"count":42696,"type":"VEC2","name":"accessorUV2s"},{"bufferView":0,"byteOffset":85392,"componentType":5123,"count":2976,"type":"SCALAR","name":"accessorIndices"},{"bufferView":1,"byteOffset":1024704,"componentType":5126,"count":2976,"max":[0.305511415,0.7463298,0.347014219],"min":[0.121836193,-0.168168485,-0.567486048],"type":"VEC3","name":"accessorPositions"},{"bufferView":2,"byteOffset":683136,"componentType":5126,"count":2976,"type":"VEC4","name":"accessorTangents"},{"bufferView":1,"byteOffset":1060416,"componentType":5126,"count":2976,"type":"VEC3","name":"accessorNormals"},{"bufferView":3,"byteOffset":683136,"componentType":5126,"count":2976,"type":"VEC2","name":"accessorUVs"},{"bufferView":3,"byteOffset":706944,"componentType":5126,"count":2976,"type":"VEC2","name":"accessorUV2s"},{"bufferView":0,"byteOffset":91344,"componentType":5123,"count":39834,"type":"SCALAR","name":"accessorIndices"},{"bufferView":1,"byteOffset":1096128,"componentType":5126,"count":39834,"max":[0.864727736,0.7416879,0.566544652],"min":[-1.06549263,-0.164144114,-0.5619993],"type":"VEC3","name":"accessorPositions"},{"bufferView":2,"byteOffset":730752,"componentType":5126,"count":39834,"type":"VEC4","name":"accessorTangents"},{"bufferView":1,"byteOffset":1574136,"componentType":5126,"count":39834,"type":"VEC3","name":"accessorNormals"},{"bufferView":3,"byteOffset":730752,"componentType":5126,"count":39834,"type":"VEC2","name":"accessorUVs"},{"bufferView":3,"byteOffset":1049424,"componentType":5126,"count":39834,"type":"VEC2","name":"accessorUV2s"},{"bufferView":0,"byteOffset":171012,"componentType":5123,"count":24,"type":"SCALAR","name":"accessorIndices"},{"bufferView":1,"byteOffset":2052144,"componentType":5126,"count":24,"max":[0.159021989,0.3596014,0.209542647],"min":[-0.60281837,0.288775146,-0.427534848],"type":"VEC3","name":"accessorPositions"},{"bufferView":2,"byteOffset":1368096,"componentType":5126,"count":24,"type":"VEC4","name":"accessorTangents"},{"bufferView":1,"byteOffset":2052432,"componentType":5126,"count":24,"type":"VEC3","name":"accessorNormals"},{"bufferView":3,"byteOffset":1368096,"componentType":5126,"count":24,"type":"VEC2","name":"accessorUVs"},{"bufferView":0,"byteOffset":171060,"componentType":5123,"count":57936,"type":"SCALAR","name":"accessorIndices"},{"bufferView":1,"byteOffset":2052720,"componentType":5126,"count":57936,"max":[1.10072565,0.8621547,0.682466865],"min":[-1.10072565,-0.3145021,-0.682466865],"type":"VEC3","name":"accessorPositions"},{"bufferView":2,"byteOffset":1368480,"componentType":5126,"count":57936,"type":"VEC4","name":"accessorTangents"},{"bufferView":1,"byteOffset":2747952,"componentType":5126,"count":57936,"type":"VEC3","name":"accessorNormals"},{"bufferView":3,"byteOffset":1368288,"componentType":5126,"count":57936,"type":"VEC2","name":"accessorUVs"},{"bufferView":0,"byteOffset":286932,"componentType":5123,"count":17544,"type":"SCALAR","name":"accessorIndices"},{"bufferView":1,"byteOffset":3443184,"componentType":5126,"count":17544,"max":[1.0502671,0.609131753,0.468582839],"min":[-0.6212985,-0.0314734019,-0.437025279],"type":"VEC3","name":"accessorPositions"},{"bufferView":2,"byteOffset":2295456,"componentType":5126,"count":17544,"type":"VEC4","name":"accessorTangents"},{"bufferView":1,"byteOffset":3653712,"componentType":5126,"count":17544,"type":"VEC3","name":"accessorNormals"},{"bufferView":3,"byteOffset":1831776,"componentType":5126,"count":17544,"type":"VEC2","name":"accessorUVs"},{"bufferView":3,"byteOffset":1972128,"componentType":5126,"count":17544,"type":"VEC2","name":"accessorUV2s"},{"bufferView":4,"componentType":5126,"count":2,"max":[2.66666675],"min":[0.0],"type":"SCALAR","name":"accessorAnimationInput"},{"bufferView":5,"componentType":5126,"count":2,"type":"VEC3","name":"accessorAnimationScales"},{"bufferView":4,"byteOffset":8,"componentType":5126,"count":2,"max":[2.66666675],"min":[0.0],"type":"SCALAR","name":"accessorAnimationInput"},{"bufferView":6,"componentType":5126,"count":2,"type":"VEC4","name":"accessorAnimationRotations"},{"bufferView":4,"byteOffset":16,"componentType":5126,"count":2,"max":[2.66666675],"min":[0.0],"type":"SCALAR","name":"accessorAnimationInput"},{"bufferView":5,"byteOffset":24,"componentType":5126,"count":2,"type":"VEC3","name":"accessorAnimationPositions"},{"bufferView":4,"byteOffset":24,"componentType":5126,"count":59,"max":[2.0],"min":[0.0],"type":"SCALAR","name":"accessorAnimationInput"},{"bufferView":5,"byteOffset":48,"componentType":5126,"count":59,"type":"VEC3","name":"accessorAnimationScales"},{"bufferView":4,"byteOffset":260,"componentType":5126,"count":61,"max":[2.0],"min":[0.0],"type":"SCALAR","name":"accessorAnimationInput"},{"bufferView":6,"byteOffset":32,"componentType":5126,"count":61,"type":"VEC4","name":"accessorAnimationRotations"},{"bufferView":4,"byteOffset":504,"componentType":5126,"count":3,"max":[2.0],"min":[0.0],"type":"SCALAR","name":"accessorAnimationInput"},{"bufferView":5,"byteOffset":756,"componentType":5126,"count":3,"type":"VEC3","name":"accessorAnimationPositions"},{"bufferView":4,"byteOffset":516,"componentType":5126,"count":60,"max":[2.0],"min":[0.0],"type":"SCALAR","name":"accessorAnimationInput"},{"bufferView":5,"byteOffset":792,"componentType":5126,"count":60,"type":"VEC3","name":"accessorAnimationScales"},{"bufferView":4,"byteOffset":756,"componentType":5126,"count":61,"max":[2.0],"min":[0.0],"type":"SCALAR","name":"accessorAnimationInput"},{"bufferView":6,"byteOffset":1008,"componentType":5126,"count":61,"type":"VEC4","name":"accessorAnimationRotations"},{"bufferView":4,"byteOffset":1000,"componentType":5126,"count":3,"max":[2.0],"min":[0.0],"type":"SCALAR","name":"accessorAnimationInput"},{"bufferView":5,"byteOffset":1512,"componentType":5126,"count":3,"type":"VEC3","name":"accessorAnimationPositions"}],"bufferViews":[{"buffer":0,"byteLength":322020,"name":"bufferViewScalar"},{"buffer":0,"byteOffset":322020,"byteLength":3864240,"byteStride":12,"name":"bufferViewFloatVec3"},{"buffer":0,"byteOffset":4186260,"byteLength":2576160,"byteStride":16,"name":"bufferViewFloatVec4"},{"buffer":0,"byteOffset":6762420,"byteLength":2112480,"byteStride":8,"name":"bufferViewFloatVec2"},{"buffer":0,"byteOffset":8874900,"byteLength":1012,"name":"bufferViewAnimationFloatScalar"},{"buffer":0,"byteOffset":8875912,"byteLength":1548,"name":"bufferViewAnimationFloatVec3"},{"buffer":0,"byteOffset":8877460,"byteLength":1984,"name":"bufferViewAnimationFloatVec4"}],"buffers":[{"uri":"ZhiShaJi.bin","byteLength":8879444}],"materials":[{"pbrMetallicRoughness":{"baseColorFactor":[0.1069,0.1069,0.1069,1.0],"metallicFactor":0.0,"roughnessFactor":0.450053632},"name":"M_Metal_Iron_Gray","extras":{"babylonUnlit":0,"babylonMaxSimultaneousLights":4,"babylonTransparencyMode":-1}},{"pbrMetallicRoughness":{"baseColorFactor":[0.5,0.5,0.5,1.0],"metallicFactor":0.0,"roughnessFactor":0.450053632},"emissiveFactor":[0.588,0.588,0.588],"name":"M_Paint_Less","extras":{"babylonUnlit":0,"babylonMaxSimultaneousLights":4,"babylonTransparencyMode":-1}},{"pbrMetallicRoughness":{"baseColorFactor":[0.08791209,0.08791209,0.08791209,1.0],"metallicFactor":0.0,"roughnessFactor":0.450053632},"name":"M_Metal_Iron_Black","extras":{"babylonUnlit":0,"babylonMaxSimultaneousLights":4,"babylonTransparencyMode":-1}},{"pbrMetallicRoughness":{"baseColorFactor":[0.5,0.5,0.5,1.0],"metallicFactor":0.0,"roughnessFactor":0.450053632},"name":"M_Logo_Texture","extras":{"babylonUnlit":0,"babylonMaxSimultaneousLights":4,"babylonTransparencyMode":-1}},{"pbrMetallicRoughness":{"baseColorFactor":[0.3681,0.1911,0.0,1.0],"metallicFactor":0.0,"roughnessFactor":0.450053632},"name":"M_Paint_Main","extras":{"babylonUnlit":0,"babylonMaxSimultaneousLights":4,"babylonTransparencyMode":-1}},{"pbrMetallicRoughness":{"baseColorFactor":[0.2375,0.2375,0.2375,1.0],"metallicFactor":0.0,"roughnessFactor":0.450053632},"name":"M_Metal_Steel_Silver","extras":{"babylonUnlit":0,"babylonMaxSimultaneousLights":4,"babylonTransparencyMode":-1}}],"animations":[{"channels":[{"sampler":0,"target":{"node":0,"path":"scale"}},{"sampler":1,"target":{"node":0,"path":"rotation"}},{"sampler":2,"target":{"node":0,"path":"translation"}}],"samplers":[{"input":34,"output":35},{"input":36,"output":37},{"input":38,"output":39}],"name":"ZhiShaJi_BaoZha"},{"channels":[{"sampler":0,"target":{"node":0,"path":"scale"}},{"sampler":1,"target":{"node":0,"path":"rotation"}},{"sampler":2,"target":{"node":0,"path":"translation"}}],"samplers":[{"input":40,"output":41},{"input":42,"output":43},{"input":44,"output":45}],"name":"ZhiShaJi_inout"},{"channels":[{"sampler":0,"target":{"node":0,"path":"scale"}},{"sampler":1,"target":{"node":0,"path":"rotation"}},{"sampler":2,"target":{"node":0,"path":"translation"}}],"samplers":[{"input":46,"output":47},{"input":48,"output":49},{"input":50,"output":51}],"name":"ZhiShaJi_BaoZha_Inout"}]}